HIERARCHY
ROOT Hip
{
    OFFSET 0.0 0.0 0.0
    CHANNELS 6 Xposition Yposition Zposition Zrotation Xrotation Yrotation
    JOINT RightHip
    {
        OFFSET -11.743134170626057 0.0 0.0
        CHANNELS 3 Zrotation Xrotation Yrotation
        JOINT RightKnee
        {
            OFFSET 0.0 0.0 -41.105171352274766
            CHANNELS 3 Zrotation Xrotation Yrotation
            JOINT RightAnkle
            {
                OFFSET 0.0 0.0 -40.82174991574395
                CHANNELS 3 Zrotation Xrotation Yrotation
                End Site
                {
                    OFFSET 0.0 -16.32869996629758 0.0
                }
            }
        }
    }
    JOINT LeftHip
    {
        OFFSET 11.743134170626057 0.0 0.0
        CHANNELS 3 Zrotation Xrotation Yrotation
        JOINT LeftKnee
        {
            OFFSET 0.0 0.0 -41.105171352274766
            CHANNELS 3 Zrotation Xrotation Yrotation
            JOINT LeftAnkle
            {
                OFFSET 0.0 0.0 -40.82174991574395
                CHANNELS 3 Zrotation Xrotation Yrotation
                End Site
                {
                    OFFSET 0.0 -16.32869996629758 0.0
                }
            }
        }
    }
    JOINT Spine
    {
        OFFSET 0.0 0.0 21.48519989247739
        CHANNELS 3 Zrotation Xrotation Yrotation
        JOINT Thorax
        {
            OFFSET 0.0 0.0 21.56601189044
            CHANNELS 3 Zrotation Xrotation Yrotation
            JOINT Neck
            {
                OFFSET 0.0 0.0 4.151720088021989
                CHANNELS 3 Zrotation Xrotation Yrotation
                JOINT Head
                {
                    OFFSET 0.0 0.0 16.520813322245417
                    CHANNELS 3 Zrotation Xrotation Yrotation
                    End Site
                    {
                        OFFSET -6.608325328898167 0.0 0.0
                    }
                }
            }
            JOINT LeftShoulder
            {
                OFFSET 13.582456303719063 0.0 0.0
                CHANNELS 3 Zrotation Xrotation Yrotation
                JOINT LeftElbow
                {
                    OFFSET 26.765532041455412 0.0 0.0
                    CHANNELS 3 Zrotation Xrotation Yrotation
                    JOINT LeftWrist
                    {
                        OFFSET 22.72470599228951 0.0 0.0
                        CHANNELS 3 Zrotation Xrotation Yrotation
                        End Site
                        {
                            OFFSET 9.089882396915804 0.0 0.0
                        }
                    }
                }
            }
            JOINT RightShoulder
            {
                OFFSET -13.582456303719063 0.0 0.0
                CHANNELS 3 Zrotation Xrotation Yrotation
                JOINT RightElbow
                {
                    OFFSET -26.765532041455412 0.0 0.0
                    CHANNELS 3 Zrotation Xrotation Yrotation
                    JOINT RightWrist
                    {
                        OFFSET -22.72470599228951 0.0 0.0
                        CHANNELS 3 Zrotation Xrotation Yrotation
                        End Site
                        {
                            OFFSET -9.089882396915804 0.0 0.0
                        }
                    }
                }
            }
            JOINT Nose
            {
                OFFSET 0.0 0.0 15.532346910793125
                CHANNELS 3 Zrotation Xrotation Yrotation
                End Site
                {
                    OFFSET -6.212938764317251 0.0 0.0
                }
            }
        }
    }
}
MOTION
Frames: 4
Frame Time: 0.03333333333333333
1.3958158814781014 67.18501319600871 44.0800394063915 -9.079948813418119 -12.788516828466104 -70.13165839965676 -17.456957804678645 1.9731288405841376 1.1820202638650115 -4.246883442103426 43.44766846071068 15.239129786184744 0.0 0.0 -2.3854160110976376e-15 17.756999044272085 -23.466755051645695 6.717593555931436 -33.719472210310784 67.069769808949 16.009356530518914 0.0 0.0 -2.3854160110976376e-15 2.6911375059019675e-16 6.06214389655221 -2.0119628738310744e-14 4.367666712798123 1.804933492300633 15.495056096889579 -142.40251483859586 25.46995946321233 -48.52857666901564 0.0 0.0 0.0 -44.24543948014132 47.18777370407467 -25.18063174984339 6.893488224043122e-15 -7.32387198978612e-15 -56.597925459951576 -1.5902773407317584e-15 4.4139062980501586e-32 -3.1805546814635168e-15 51.455886393713165 -23.845199633959272 26.992588939691785 1.3754553826154582e-15 1.2647646887816961e-14 167.58673618347686 0.0 0.0 0.0 0.0 0.0 -1.6896696745274934e-15
1.4122771384834734 67.88372529534756 43.93311228917841 -10.338585848297901 -13.815831510521589 -68.15852384174998 -16.25650955075076 3.5210724519914165 1.6311642210929302 -5.065950126554677 45.37681385859155 15.387172097232302 0.0 0.0 0.0 16.007943111717957 -20.717071274834588 5.173284765510909 -34.43536371717695 64.71775431495985 17.640147926647387 -1.5902773407317584e-15 2.758691436281349e-32 -1.987846675914698e-15 -1.3486509972312721e-15 6.772143915071667 -1.75931968531837e-14 4.332064578897525 1.5783270290688396 17.644127799074894 -141.04586771350037 28.96252695543903 -46.06694018001521 0.0 0.0 0.0 -39.675766594240905 48.544746659327366 -26.389555453760362 -4.312527770727607e-15 -1.2782646010361701e-15 -56.97958681966115 -1.5902773407317584e-15 6.3611093629270335e-15 1.5902773407317584e-15 73.19123483117312 -55.326147074303655 44.0584470551822 1.6952418070579861e-16 -1.9345816100076968e-14 162.07947672611022 0.0 0.0 3.1805546814635168e-15 0.0 0.0 1.3914926731402886e-15
1.4332486864877296 68.77388054458874 43.74592797568667 -11.687375539038534 -14.935754112388832 -66.57804133858065 -13.287561737327346 4.342417965035229 1.7036117890041669 -8.496708404775434 47.67087147574091 16.261854359102852 -3.1805546814635156e-15 -4.4139062980501586e-32 1.5902773407317578e-15 13.327171344806938 -16.67540119172962 3.1686896592571308 -35.31163471711186 60.15766303309202 19.770768320293396 -7.724336021587778e-32 -3.1805546814635164e-15 -2.7829853462805768e-15 -2.4083796548816156e-15 7.098023585826962 -2.53937491312388e-14 3.861603200840704 0.9935293705317109 21.28065872322471 -137.90868545296672 33.231374376334685 -43.61394834675555 0.0 0.0 -1.5902773407317584e-15 -47.08525609768307 44.824199919205704 -20.17510291704437 -3.3844927988314933e-15 -1.2669490356163072e-14 -57.98566007761028 -3.1805546814635164e-15 -6.3611093629270335e-15 4.770832022195275e-15 61.4369318581952 -34.674830819950785 31.414812372515215 4.6824106455900705e-15 -9.14258568496156e-16 157.90356309329638 0.0 0.0 0.0 0.0 0.0 -1.6896696745274934e-15
1.434530609281229 68.82829285137333 43.73448600497464 -12.361988229678342 -15.532245449438719 -65.32665455121314 -9.71758813237853 2.782457446367381 1.2264149909364945 -11.826640656331138 51.588977428556944 17.025234950675074 -1.5902773407317584e-15 -4.4139062980501586e-32 3.1805546814635168e-15 9.689878072050341 -13.309924885622388 1.4714766471219836 -34.75391832205783 56.782631934811306 21.575637945854517 -1.5902773407317584e-15 1.6552148617688095e-32 -1.1927080055488188e-15 3.708927039684059e-16 7.422524419587866 4.2414766252690906e-16 4.077673012537584 0.9829812449338342 23.118464386895422 -137.69714889118492 35.96897751858176 -40.70733645153527 0.0 0.0 0.0 -56.516198179189395 36.546162986818295 -12.845166978520657 1.5174828911265263e-14 -1.2000579425163976e-14 -57.750758965028915 0.0 0.0 0.0 55.42803992299235 -7.04737197541621 39.15852262001181 4.538965897997437e-16 -2.734935796929744e-14 138.8400474567001 0.0 0.0 0.0 0.0 0.0 2.2860236773019026e-15
